<svg width="82" height="23" viewBox="0 0 82 23" fill="none" xmlns="http://www.w3.org/2000/svg">
<path d="M0.224 17L0.224 1.544L4.088 1.544L4.088 7.544L9.416 1.544L13.832 1.544L8.312 7.856L14.168 17L10.04 17L5.912 10.328L4.088 12.32L4.088 17L0.224 17ZM15.0487 17L15.0487 5.624L18.7207 5.624L18.8407 6.68C19.3367 6.376 19.9527 6.104 20.6887 5.864C21.4247 5.608 22.1607 5.448 22.8967 5.384L22.8967 8.288C22.4807 8.336 22.0167 8.416 21.5047 8.528C21.0087 8.624 20.5287 8.744 20.0647 8.888C19.6167 9.032 19.2327 9.184 18.9127 9.344L18.9127 17L15.0487 17ZM24.6414 3.824L24.6414 0.92L28.8414 0.92L28.8414 3.824L24.6414 3.824ZM24.9534 17L24.9534 8.48L23.2734 8.48L23.6094 5.624L28.8174 5.624L28.8174 17L24.9534 17ZM30.3196 17L30.3196 14.936L35.5756 8.696L30.5116 8.696L30.5116 5.624L40.4716 5.624L40.4716 7.88L35.3356 14.024L40.6396 14.024L40.6396 17L30.3196 17ZM42.1321 22.184L42.1321 5.624L45.4921 5.624L45.6841 6.608C46.1481 6.224 46.6681 5.928 47.2441 5.72C47.8201 5.496 48.4921 5.384 49.2601 5.384C50.8761 5.384 52.1561 5.824 53.1001 6.704C54.0441 7.568 54.5161 9.024 54.5161 11.072C54.5161 13.104 54.0281 14.64 53.0521 15.68C52.0921 16.72 50.7641 17.24 49.0681 17.24C47.8681 17.24 46.8441 16.992 45.9961 16.496L45.9961 22.184L42.1321 22.184ZM48.0841 14.408C49.7481 14.408 50.5801 13.272 50.5801 11C50.5801 9.912 50.3881 9.176 50.0041 8.792C49.6201 8.408 49.0041 8.216 48.1561 8.216C47.3401 8.216 46.6201 8.504 45.9961 9.08L45.9961 13.688C46.3001 13.912 46.6041 14.088 46.9081 14.216C47.2281 14.344 47.6201 14.408 48.0841 14.408ZM59.5479 17.24C58.8279 17.24 58.1559 17.112 57.5319 16.856C56.9239 16.6 56.4359 16.208 56.0679 15.68C55.6999 15.136 55.5159 14.464 55.5159 13.664C55.5159 12.496 55.9079 11.584 56.6919 10.928C57.4919 10.256 58.6839 9.92 60.2679 9.92L63.4359 9.92L63.4359 9.656C63.4359 9.08 63.2439 8.672 62.8599 8.432C62.4759 8.176 61.7559 8.048 60.6999 8.048C59.4039 8.048 58.1319 8.248 56.8839 8.648L56.8839 6.152C57.4439 5.928 58.1239 5.744 58.9239 5.6C59.7399 5.456 60.5959 5.384 61.4919 5.384C63.2519 5.384 64.6279 5.744 65.6199 6.464C66.6279 7.184 67.1319 8.328 67.1319 9.896L67.1319 17L63.7479 17L63.5559 16.04C63.1399 16.424 62.6039 16.72 61.9479 16.928C61.3079 17.136 60.5079 17.24 59.5479 17.24ZM60.7719 14.864C61.3799 14.864 61.9079 14.76 62.3559 14.552C62.8039 14.344 63.1639 14.08 63.4359 13.76L63.4359 12.152L60.6999 12.152C59.5639 12.152 58.9959 12.608 58.9959 13.52C58.9959 13.936 59.1399 14.264 59.4279 14.504C59.7159 14.744 60.1639 14.864 60.7719 14.864ZM71.2749 21.224C70.6989 21.224 70.2029 21.192 69.7869 21.128C69.3869 21.08 68.9869 20.976 68.5869 20.816L68.5869 18.128C68.8589 18.224 69.1069 18.288 69.3309 18.32C69.5709 18.352 69.8109 18.368 70.0509 18.368C70.7069 18.368 71.1949 18.248 71.5149 18.008C71.8509 17.784 72.1869 17.376 72.5229 16.784L67.4109 5.624L71.4669 5.624L74.4669 12.848L77.4189 5.624L81.4509 5.624L77.1069 16.064C76.6749 17.104 76.1949 18.008 75.6669 18.776C75.1389 19.56 74.5229 20.16 73.8189 20.576C73.1149 21.008 72.2669 21.224 71.2749 21.224Z" fill="white"/>
</svg>
