<svg width="84" height="51" viewBox="0 0 84 51" fill="none" xmlns="http://www.w3.org/2000/svg">
<path d="M1.224 26.5L1.224 11.044L5.088 11.044L5.088 17.044L10.416 11.044L14.832 11.044L9.312 17.356L15.168 26.5L11.04 26.5L6.912 19.828L5.088 21.82L5.088 26.5L1.224 26.5ZM16.0487 26.5L16.0487 15.124L19.7207 15.124L19.8407 16.18C20.3367 15.876 20.9527 15.604 21.6887 15.364C22.4247 15.108 23.1607 14.948 23.8967 14.884L23.8967 17.788C23.4807 17.836 23.0167 17.916 22.5047 18.028C22.0087 18.124 21.5287 18.244 21.0647 18.388C20.6167 18.532 20.2327 18.684 19.9127 18.844L19.9127 26.5L16.0487 26.5ZM25.6414 13.324L25.6414 10.42L29.8414 10.42L29.8414 13.324L25.6414 13.324ZM25.9534 26.5L25.9534 17.98L24.2734 17.98L24.6094 15.124L29.8174 15.124L29.8174 26.5L25.9534 26.5ZM31.3196 26.5L31.3196 24.436L36.5756 18.196L31.5116 18.196L31.5116 15.124L41.4716 15.124L41.4716 17.38L36.3356 23.524L41.6396 23.524L41.6396 26.5L31.3196 26.5ZM43.1321 31.684L43.1321 15.124L46.4921 15.124L46.6841 16.108C47.1481 15.724 47.6681 15.428 48.2441 15.22C48.8201 14.996 49.4921 14.884 50.2601 14.884C51.8761 14.884 53.1561 15.324 54.1001 16.204C55.0441 17.068 55.5161 18.524 55.5161 20.572C55.5161 22.604 55.0281 24.14 54.0521 25.18C53.0921 26.22 51.7641 26.74 50.0681 26.74C48.8681 26.74 47.8441 26.492 46.9961 25.996L46.9961 31.684L43.1321 31.684ZM49.0841 23.908C50.7481 23.908 51.5801 22.772 51.5801 20.5C51.5801 19.412 51.3881 18.676 51.0041 18.292C50.6201 17.908 50.0041 17.716 49.1561 17.716C48.3401 17.716 47.6201 18.004 46.9961 18.58L46.9961 23.188C47.3001 23.412 47.6041 23.588 47.9081 23.716C48.2281 23.844 48.6201 23.908 49.0841 23.908ZM60.5479 26.74C59.8279 26.74 59.1559 26.612 58.5319 26.356C57.9239 26.1 57.4359 25.708 57.0679 25.18C56.6999 24.636 56.5159 23.964 56.5159 23.164C56.5159 21.996 56.9079 21.084 57.6919 20.428C58.4919 19.756 59.6839 19.42 61.2679 19.42L64.4359 19.42L64.4359 19.156C64.4359 18.58 64.2439 18.172 63.8599 17.932C63.4759 17.676 62.7559 17.548 61.6999 17.548C60.4039 17.548 59.1319 17.748 57.8839 18.148L57.8839 15.652C58.4439 15.428 59.1239 15.244 59.9239 15.1C60.7399 14.956 61.5959 14.884 62.4919 14.884C64.2519 14.884 65.6279 15.244 66.6199 15.964C67.6279 16.684 68.1319 17.828 68.1319 19.396L68.1319 26.5L64.7479 26.5L64.5559 25.54C64.1399 25.924 63.6039 26.22 62.9479 26.428C62.3079 26.636 61.5079 26.74 60.5479 26.74ZM61.7719 24.364C62.3799 24.364 62.9079 24.26 63.3559 24.052C63.8039 23.844 64.1639 23.58 64.4359 23.26L64.4359 21.652L61.6999 21.652C60.5639 21.652 59.9959 22.108 59.9959 23.02C59.9959 23.436 60.1399 23.764 60.4279 24.004C60.7159 24.244 61.1639 24.364 61.7719 24.364ZM72.2749 30.724C71.6989 30.724 71.2029 30.692 70.7869 30.628C70.3869 30.58 69.9869 30.476 69.5869 30.316L69.5869 27.628C69.8589 27.724 70.1069 27.788 70.3309 27.82C70.5709 27.852 70.8109 27.868 71.0509 27.868C71.7069 27.868 72.1949 27.748 72.5149 27.508C72.8509 27.284 73.1869 26.876 73.5229 26.284L68.4109 15.124L72.4669 15.124L75.4669 22.348L78.4189 15.124L82.4509 15.124L78.1069 25.564C77.6749 26.604 77.1949 27.508 76.6669 28.276C76.1389 29.06 75.5229 29.66 74.8189 30.076C74.1149 30.508 73.2669 30.724 72.2749 30.724Z" fill="white"/>
<path d="M0.756 45.5L0.756 37.772L4.2 37.772C4.792 37.772 5.28 37.884 5.664 38.108C6.048 38.332 6.332 38.64 6.516 39.032C6.7 39.416 6.792 39.856 6.792 40.352C6.792 41.12 6.552 41.736 6.072 42.2C5.6 42.664 4.96 42.896 4.152 42.896L2.064 42.896L2.064 45.5L0.756 45.5ZM2.064 41.864L3.912 41.864C4.432 41.864 4.824 41.728 5.088 41.456C5.352 41.184 5.484 40.816 5.484 40.352C5.484 39.856 5.356 39.472 5.1 39.2C4.852 38.928 4.476 38.792 3.972 38.792L2.064 38.792L2.064 41.864ZM9.37575 45.62C9.01575 45.62 8.67975 45.556 8.36775 45.428C8.06375 45.3 7.81975 45.108 7.63575 44.852C7.45175 44.588 7.35975 44.264 7.35975 43.88C7.35975 43.336 7.54375 42.9 7.91175 42.572C8.28775 42.236 8.86375 42.068 9.63975 42.068L11.4638 42.068L11.4638 41.816C11.4638 41.544 11.4198 41.328 11.3318 41.168C11.2518 41.008 11.0998 40.892 10.8758 40.82C10.6598 40.748 10.3398 40.712 9.91575 40.712C9.24375 40.712 8.61575 40.812 8.03175 41.012L8.03175 40.04C8.28775 39.936 8.59975 39.852 8.96775 39.788C9.33575 39.724 9.73175 39.692 10.1558 39.692C10.9878 39.692 11.6198 39.86 12.0518 40.196C12.4918 40.532 12.7118 41.08 12.7118 41.84L12.7118 45.5L11.5958 45.5L11.5118 44.924C11.2798 45.148 10.9918 45.32 10.6478 45.44C10.3118 45.56 9.88775 45.62 9.37575 45.62ZM9.72375 44.684C10.1158 44.684 10.4558 44.62 10.7438 44.492C11.0398 44.356 11.2798 44.176 11.4638 43.952L11.4638 42.956L9.66375 42.956C9.27975 42.956 8.99975 43.032 8.82375 43.184C8.65575 43.328 8.57175 43.552 8.57175 43.856C8.57175 44.152 8.67175 44.364 8.87175 44.492C9.07175 44.62 9.35575 44.684 9.72375 44.684ZM14.9072 47.612C14.4752 47.612 14.1072 47.556 13.8032 47.444L13.8032 46.472C13.9392 46.52 14.0632 46.552 14.1752 46.568C14.2952 46.584 14.4152 46.592 14.5352 46.592C14.7832 46.592 14.9832 46.552 15.1352 46.472C15.2872 46.392 15.4192 46.264 15.5312 46.088C15.6512 45.92 15.7792 45.7 15.9152 45.428L13.3832 39.812L14.7392 39.812L16.5632 44.036L18.4112 39.812L19.7552 39.812L17.4392 45.176C17.2392 45.656 17.0232 46.076 16.7912 46.436C16.5672 46.804 16.3032 47.092 15.9992 47.3C15.7032 47.508 15.3392 47.612 14.9072 47.612ZM27.1847 45.62C25.9127 45.62 24.9487 45.272 24.2927 44.576C23.6447 43.88 23.3207 42.94 23.3207 41.756C23.3207 40.908 23.4567 40.18 23.7287 39.572C24.0087 38.956 24.4327 38.484 25.0007 38.156C25.5687 37.82 26.2927 37.652 27.1727 37.652C27.6207 37.652 28.0287 37.688 28.3967 37.76C28.7727 37.824 29.1207 37.912 29.4407 38.024L29.4407 39.164C29.1207 39.036 28.7767 38.94 28.4087 38.876C28.0487 38.804 27.6687 38.768 27.2687 38.768C26.3087 38.768 25.6287 39.024 25.2287 39.536C24.8367 40.048 24.6407 40.788 24.6407 41.756C24.6407 42.66 24.8567 43.348 25.2887 43.82C25.7207 44.284 26.3887 44.516 27.2927 44.516C27.6607 44.516 28.0287 44.488 28.3967 44.432C28.7727 44.368 29.1247 44.272 29.4527 44.144L29.4527 45.296C29.1327 45.4 28.7847 45.48 28.4087 45.536C28.0407 45.592 27.6327 45.62 27.1847 45.62ZM30.7208 45.5L30.7208 39.812L31.9208 39.812L31.9928 40.472C32.2648 40.296 32.5888 40.136 32.9648 39.992C33.3408 39.848 33.7128 39.748 34.0808 39.692L34.0808 40.688C33.8568 40.728 33.6128 40.788 33.3488 40.868C33.0928 40.94 32.8488 41.024 32.6168 41.12C32.3848 41.208 32.1888 41.3 32.0288 41.396L32.0288 45.5L30.7208 45.5ZM36.4461 45.62C36.0861 45.62 35.7501 45.556 35.4381 45.428C35.1341 45.3 34.8901 45.108 34.7061 44.852C34.5221 44.588 34.4301 44.264 34.4301 43.88C34.4301 43.336 34.6141 42.9 34.9821 42.572C35.3581 42.236 35.9341 42.068 36.7101 42.068L38.5341 42.068L38.5341 41.816C38.5341 41.544 38.4901 41.328 38.4021 41.168C38.3221 41.008 38.1701 40.892 37.9461 40.82C37.7301 40.748 37.4101 40.712 36.9861 40.712C36.3141 40.712 35.6861 40.812 35.1021 41.012L35.1021 40.04C35.3581 39.936 35.6701 39.852 36.0381 39.788C36.4061 39.724 36.8021 39.692 37.2261 39.692C38.0581 39.692 38.6901 39.86 39.1221 40.196C39.5621 40.532 39.7821 41.08 39.7821 41.84L39.7821 45.5L38.6661 45.5L38.5821 44.924C38.3501 45.148 38.0621 45.32 37.7181 45.44C37.3821 45.56 36.9581 45.62 36.4461 45.62ZM36.7941 44.684C37.1861 44.684 37.5261 44.62 37.8141 44.492C38.1101 44.356 38.3501 44.176 38.5341 43.952L38.5341 42.956L36.7341 42.956C36.3501 42.956 36.0701 43.032 35.8941 43.184C35.7261 43.328 35.6421 43.552 35.6421 43.856C35.6421 44.152 35.7421 44.364 35.9421 44.492C36.1421 44.62 36.4261 44.684 36.7941 44.684ZM40.9926 45.5L40.9926 44.816L44.1006 40.88L41.1366 40.88L41.1366 39.812L45.7086 39.812L45.7086 40.616L42.6606 44.492L45.7926 44.492L45.7926 45.5L40.9926 45.5ZM47.9423 47.612C47.5103 47.612 47.1423 47.556 46.8383 47.444L46.8383 46.472C46.9743 46.52 47.0983 46.552 47.2103 46.568C47.3303 46.584 47.4503 46.592 47.5703 46.592C47.8183 46.592 48.0183 46.552 48.1703 46.472C48.3223 46.392 48.4543 46.264 48.5663 46.088C48.6863 45.92 48.8143 45.7 48.9503 45.428L46.4183 39.812L47.7743 39.812L49.5983 44.036L51.4463 39.812L52.7903 39.812L50.4743 45.176C50.2743 45.656 50.0583 46.076 49.8263 46.436C49.6023 46.804 49.3383 47.092 49.0343 47.3C48.7383 47.508 48.3743 47.612 47.9423 47.612ZM53.7102 43.568L53.6382 39.704L53.6382 37.772L54.9462 37.772L54.9462 39.704L54.8742 43.568L53.7102 43.568ZM53.5902 45.5L53.5902 44.516L54.9822 44.516L54.9822 45.5L53.5902 45.5Z" fill="white"/>
</svg>
